<?xml version="1.0" encoding="UTF-8" ?>
<!DOCTYPE svg PUBLIC "-//W3C//DTD SVG 1.1//EN" "http://www.w3.org/Graphics/SVG/1.1/DTD/svg11.dtd">
<svg width="400pt" height="387pt" viewBox="0 0 400 387" version="1.1" xmlns="http://www.w3.org/2000/svg">
<path fill="#ffffff" d=" M 0.00 0.00 L 400.00 0.00 L 400.00 387.00 L 0.00 387.00 L 0.00 0.00 Z" />
<path fill="#cdc3cc" d=" M 280.28 27.30 C 280.66 27.67 280.66 27.67 280.28 27.30 Z" />
<path fill="#cdc3cc" d=" M 280.28 30.30 C 281.27 29.22 282.27 28.14 283.25 27.04 C 285.43 30.64 287.40 34.40 286.89 38.77 C 287.65 38.85 289.17 39.00 289.93 39.08 C 289.42 40.02 288.92 40.96 288.42 41.91 C 290.84 44.36 292.91 47.40 292.94 50.99 C 293.05 55.57 293.94 60.20 296.59 64.03 C 298.25 62.69 300.03 61.50 301.90 60.45 C 303.15 63.92 306.44 65.72 309.25 67.76 C 308.48 72.75 310.67 77.40 310.84 82.32 C 312.22 85.34 315.39 87.39 316.23 90.76 C 317.61 94.08 315.44 97.60 316.62 100.97 C 317.21 100.56 318.40 99.75 319.00 99.35 C 318.84 101.60 318.67 103.85 318.48 106.10 C 321.87 108.60 325.53 111.00 329.80 111.59 C 330.18 112.59 330.56 113.59 330.95 114.60 C 335.00 115.84 338.77 117.81 342.41 119.95 C 341.80 120.94 341.18 121.93 340.57 122.92 C 341.75 124.78 343.38 126.27 345.39 127.19 C 347.66 131.64 348.19 136.67 350.06 141.26 C 350.89 141.45 351.75 141.47 352.58 141.67 C 352.61 140.70 352.66 138.75 352.69 137.78 C 354.53 139.73 356.51 141.54 358.62 143.20 C 358.57 142.19 358.47 140.17 358.42 139.16 C 361.58 142.72 359.99 147.52 360.73 151.78 C 362.06 151.80 363.40 151.82 364.74 151.84 C 364.68 152.66 364.56 154.30 364.50 155.12 C 364.88 155.66 365.65 156.74 366.03 157.28 C 367.37 157.43 368.73 157.58 370.08 157.74 C 370.97 159.72 371.69 161.92 373.48 163.29 C 376.35 165.51 377.28 169.43 380.67 171.12 C 382.12 168.75 382.74 166.05 383.32 163.37 C 384.66 167.48 382.87 171.45 381.29 175.17 C 381.55 175.63 382.08 176.56 382.35 177.02 C 381.59 181.43 382.70 185.91 381.78 190.31 C 383.80 193.10 384.73 196.44 385.46 199.76 C 382.43 200.67 379.24 200.86 376.22 199.80 C 374.23 200.61 372.26 201.44 370.28 202.27 C 370.44 203.61 370.60 204.96 370.77 206.31 C 369.87 205.94 368.96 205.58 368.07 205.21 C 367.31 206.04 366.55 206.87 365.80 207.70 C 364.49 205.96 363.55 203.42 361.05 203.21 C 356.77 201.77 352.23 202.20 347.82 201.62 C 345.81 202.78 344.03 204.28 342.49 206.02 C 318.28 206.34 294.06 205.97 269.84 206.04 C 269.78 198.24 269.86 190.44 269.80 182.63 C 260.18 182.40 250.55 182.61 240.93 182.52 C 240.79 149.53 240.99 116.53 240.83 83.54 C 243.97 85.54 247.98 85.09 251.19 86.85 C 253.62 91.89 259.89 96.32 265.48 93.36 C 268.62 92.29 268.54 88.50 270.11 86.09 C 271.61 83.62 272.87 80.98 272.96 78.04 C 273.02 73.85 275.83 70.09 274.84 65.86 C 274.51 62.89 274.94 59.81 273.81 56.97 C 274.82 54.39 275.91 51.70 275.17 48.88 C 276.09 47.93 277.02 47.00 277.97 46.06 C 276.99 45.42 276.01 44.78 275.03 44.14 C 277.93 40.02 279.60 35.26 280.28 30.30 Z" />
<path fill="#cdc3cc" d=" M 190.76 29.40 C 191.19 31.21 191.29 33.08 191.29 34.95 C 192.34 34.66 193.40 34.37 194.46 34.08 C 195.06 35.03 195.66 35.97 196.26 36.92 C 198.22 37.45 200.24 37.70 202.27 37.57 C 204.80 39.60 208.00 40.35 211.19 40.40 C 212.21 41.06 213.22 41.73 214.23 42.40 C 216.66 41.17 219.05 39.86 221.34 38.38 C 221.19 40.52 222.22 42.39 223.22 44.20 C 223.87 44.08 225.18 43.85 225.84 43.73 C 225.53 42.11 225.28 40.39 226.68 39.18 C 228.19 40.69 229.92 41.94 231.82 42.93 C 229.25 45.30 227.64 48.42 227.10 51.87 C 226.48 51.39 225.85 50.91 225.23 50.44 C 224.07 51.00 222.90 51.56 221.74 52.11 C 221.74 53.84 222.10 55.53 222.77 57.13 C 221.55 60.60 219.12 63.40 216.88 66.24 C 217.09 66.74 217.49 67.73 217.69 68.23 C 222.00 69.57 224.96 72.91 228.18 75.82 C 231.99 77.16 235.80 78.53 239.32 80.58 C 238.85 87.37 239.13 94.19 239.06 100.99 C 239.02 128.17 239.15 155.36 239.00 182.54 C 212.01 182.53 185.02 182.53 158.04 182.54 C 157.94 144.52 158.04 106.50 157.99 68.48 C 159.33 68.38 160.66 68.27 162.00 68.17 C 162.66 68.70 163.32 69.24 163.98 69.78 C 164.11 68.10 164.25 66.43 164.40 64.76 C 163.11 64.08 161.82 63.40 160.53 62.72 C 161.66 61.29 162.88 59.95 164.19 58.69 C 164.55 57.26 164.89 55.82 165.23 54.39 C 166.50 53.93 167.78 53.47 169.06 53.02 C 168.71 51.78 168.36 50.55 168.02 49.31 C 169.68 47.54 171.33 45.76 172.98 43.97 C 173.40 44.20 174.25 44.65 174.67 44.88 C 175.54 43.60 176.53 42.41 177.62 41.31 C 182.23 42.33 187.40 43.04 191.64 40.44 C 191.65 38.35 191.49 36.22 190.38 34.39 C 188.97 34.54 187.56 34.69 186.15 34.84 C 185.34 34.00 184.54 33.16 183.74 32.33 C 185.88 32.35 188.02 32.41 190.16 32.50 C 190.31 31.73 190.61 30.17 190.76 29.40 Z" />
<path fill="#cdc3cc" d=" M 173.29 33.81 C 175.22 33.46 177.15 33.06 179.05 32.57 C 179.91 33.14 180.90 33.64 181.32 34.66 C 179.54 36.51 177.48 39.36 174.54 38.49 C 172.46 38.24 170.37 38.04 168.28 37.91 C 168.53 36.34 168.77 34.76 169.02 33.18 C 169.39 33.93 170.12 35.44 170.49 36.20 C 170.54 34.75 170.59 33.30 170.65 31.85 C 171.31 32.34 172.63 33.32 173.29 33.81 Z" />
<path fill="#cdc3cc" d=" M 224.05 55.98 C 227.01 54.41 224.21 59.32 224.05 55.98 Z" />
<path fill="#cdc3cc" d=" M 228.11 56.21 C 228.86 56.43 229.61 56.64 230.36 56.86 C 230.37 58.64 230.40 60.42 230.45 62.20 C 229.13 61.60 227.81 61.02 226.50 60.44 C 226.51 59.43 226.52 58.43 226.54 57.42 C 226.93 57.12 227.72 56.52 228.11 56.21 Z" />
<path fill="#cdc3cc" d=" M 136.09 59.98 C 136.65 58.76 137.20 57.54 137.76 56.32 C 143.00 57.67 146.09 62.06 149.83 65.55 C 149.47 67.72 149.37 69.93 149.56 72.13 C 150.99 70.24 152.20 68.19 153.01 65.96 C 154.07 66.35 155.13 66.75 156.19 67.14 C 156.16 124.12 156.19 181.10 156.18 238.08 C 151.43 240.71 146.26 242.56 140.97 243.74 C 137.39 244.55 133.71 243.32 130.13 243.96 C 126.37 245.37 123.25 248.00 119.64 249.72 C 117.38 250.85 114.90 251.46 112.69 252.70 C 111.43 255.11 111.20 258.12 109.12 260.06 C 107.74 261.66 105.60 262.07 103.69 262.68 C 102.85 262.18 102.02 261.68 101.18 261.20 C 98.80 261.75 96.42 262.33 94.06 262.94 C 93.68 262.61 92.92 261.94 92.54 261.61 C 90.36 261.50 88.20 261.22 86.04 261.03 C 81.54 260.52 77.36 263.40 72.84 262.28 C 70.76 264.32 68.95 266.59 67.02 268.76 C 64.87 268.18 62.63 268.36 61.26 270.33 C 58.62 273.29 54.79 275.46 50.72 275.09 C 46.79 274.58 42.63 275.07 38.98 273.23 C 36.20 272.51 35.07 269.70 33.17 267.87 C 31.75 266.56 29.70 266.65 27.92 266.38 C 27.47 263.70 27.26 260.99 27.18 258.29 C 28.34 258.53 29.50 258.77 30.66 259.02 C 32.00 257.20 34.30 255.45 33.54 252.90 C 32.70 248.93 34.26 245.08 34.24 241.13 C 34.15 233.72 27.96 228.18 27.26 220.91 C 26.88 217.29 27.92 213.35 26.01 210.03 C 24.34 206.72 22.92 203.25 20.58 200.34 C 18.81 198.38 19.54 195.57 18.97 193.20 C 17.55 187.95 12.72 184.46 11.25 179.24 C 13.10 180.74 14.41 182.76 15.96 184.55 C 16.34 183.38 16.73 182.22 17.11 181.05 C 13.91 179.00 12.92 175.32 12.91 171.72 C 15.32 174.86 16.70 178.59 18.50 182.07 C 18.83 181.78 19.50 181.21 19.83 180.92 C 20.03 179.36 20.23 177.80 20.43 176.24 C 17.36 171.10 14.18 165.90 12.66 160.05 C 11.87 155.82 16.21 153.10 16.12 149.05 C 16.27 146.69 15.66 144.39 15.05 142.14 C 16.10 139.29 16.92 136.10 19.54 134.24 C 19.11 136.76 18.89 139.32 19.40 141.85 C 22.31 141.28 22.57 138.02 23.86 135.87 C 24.63 133.77 27.06 133.53 28.87 132.85 C 33.54 131.88 35.72 127.00 39.88 125.06 C 42.90 123.08 46.68 123.03 49.95 124.40 C 51.68 123.76 53.33 122.90 54.83 121.80 C 57.02 119.96 60.11 120.49 62.65 119.50 C 63.88 118.74 64.84 117.63 65.90 116.67 C 72.07 117.29 78.29 115.63 83.63 112.56 C 87.26 110.24 88.43 105.89 90.57 102.42 C 92.39 100.79 94.53 99.57 96.52 98.16 C 95.99 97.77 94.93 96.98 94.40 96.59 C 94.27 94.07 93.09 91.07 95.04 88.95 C 97.33 86.46 99.99 84.23 101.38 81.05 C 102.62 85.14 104.45 89.02 106.73 92.63 C 107.10 91.11 107.47 89.60 107.83 88.09 C 108.64 88.25 109.44 88.40 110.25 88.55 C 109.48 86.87 108.48 85.30 107.28 83.89 C 107.43 82.35 107.59 80.81 107.74 79.27 C 110.81 81.11 114.39 81.61 117.87 82.09 C 117.10 81.71 115.58 80.95 114.81 80.56 C 115.80 79.18 116.78 77.79 117.76 76.40 C 116.82 76.56 115.89 76.72 114.96 76.89 C 114.91 76.17 114.81 74.74 114.76 74.02 C 116.09 73.15 117.43 72.29 118.79 71.45 C 119.80 72.05 120.90 72.48 122.10 72.33 C 121.24 71.68 119.54 70.37 118.69 69.72 C 120.78 69.55 122.87 69.37 124.97 69.33 C 122.93 67.97 121.76 65.85 121.00 63.57 C 121.41 63.84 122.21 64.36 122.61 64.62 C 123.54 64.45 125.39 64.11 126.32 63.94 C 126.29 63.03 126.21 61.20 126.18 60.29 C 126.98 61.93 127.77 63.58 128.55 65.23 C 129.64 62.81 130.84 60.29 133.31 58.99 C 134.23 59.32 135.16 59.66 136.09 59.98 Z" />
<path fill="#cdc3cc" d=" M 251.69 83.80 C 253.40 82.47 255.46 81.96 257.60 81.87 C 255.82 82.83 253.81 85.68 251.69 83.80 Z" />
<path fill="#cdc3cc" d=" M 7.95 172.27 C 9.00 174.07 10.42 175.80 10.76 177.91 C 8.62 176.98 8.49 174.21 7.95 172.27 Z" />
<path fill="#cdc3cc" d=" M 158.03 184.33 C 194.68 184.34 231.32 184.34 267.97 184.33 C 268.00 226.08 268.06 267.82 267.94 309.56 C 264.03 309.33 262.29 305.56 260.16 302.87 C 258.73 301.08 257.94 298.93 257.29 296.77 C 257.82 295.86 258.35 294.93 258.88 294.02 C 257.91 291.34 257.25 288.51 255.85 286.01 C 254.04 283.57 251.43 281.90 249.08 280.03 C 246.99 281.13 244.66 281.45 242.33 281.44 C 243.34 280.34 244.37 279.26 245.40 278.18 C 245.59 275.84 246.01 273.48 245.70 271.13 C 244.97 268.76 243.43 266.74 242.16 264.63 C 240.66 268.20 239.78 271.98 238.81 275.72 C 235.97 275.56 233.33 276.70 230.70 277.59 C 231.15 276.06 231.60 274.54 232.06 273.01 C 233.45 273.26 234.85 273.52 236.25 273.78 C 236.74 270.56 236.50 267.30 236.84 264.08 C 237.55 261.69 239.50 259.97 241.08 258.14 C 240.69 257.06 240.30 255.99 239.91 254.92 C 240.46 254.18 241.01 253.44 241.56 252.71 C 240.95 250.50 240.31 248.30 239.63 246.12 C 239.45 247.64 239.28 249.15 239.10 250.68 C 236.33 252.68 235.22 255.92 234.20 259.02 C 228.64 260.70 225.02 265.27 221.97 269.93 C 222.23 270.84 222.74 272.67 223.00 273.59 C 222.01 273.44 220.02 273.15 219.03 273.01 C 217.98 271.64 216.94 270.27 215.91 268.90 C 217.67 263.35 212.65 259.70 210.75 255.10 C 210.02 253.50 207.94 253.68 206.52 253.21 C 205.96 252.07 205.42 250.93 204.88 249.79 C 205.59 249.27 206.30 248.75 207.02 248.24 C 206.70 247.79 206.07 246.88 205.76 246.42 C 205.20 246.24 204.08 245.89 203.52 245.72 C 202.66 244.47 201.80 243.24 200.93 242.01 C 199.16 242.43 197.17 244.06 195.48 242.64 C 194.24 241.89 193.12 240.97 191.99 240.10 C 190.62 240.49 189.26 240.90 187.91 241.31 C 184.70 239.01 181.45 236.75 177.88 235.05 C 174.26 237.32 169.98 236.05 166.00 236.47 C 163.34 236.70 160.68 237.02 158.02 237.26 C 158.00 219.62 157.97 201.97 158.03 184.33 Z" />
<path fill="#cdc3cc" d=" M 385.08 192.27 C 386.49 192.37 386.74 193.02 385.86 194.23 C 384.44 194.12 384.19 193.47 385.08 192.27 Z" />
<path fill="#cdc3cc" d=" M 372.27 203.18 C 376.67 201.56 381.43 203.30 385.85 201.61 C 386.14 203.47 387.27 205.47 386.32 207.32 C 385.05 210.09 384.19 213.01 383.95 216.06 C 383.59 219.84 381.10 223.14 381.41 227.02 C 381.59 231.83 380.17 236.63 377.49 240.61 C 376.38 241.92 376.86 243.65 376.83 245.21 C 374.58 247.54 371.92 249.39 369.46 251.45 C 366.12 255.35 365.61 260.76 362.99 265.06 C 360.99 268.27 360.50 272.08 359.44 275.63 C 357.34 278.83 354.97 282.10 354.30 285.93 C 354.11 291.69 351.43 297.19 352.88 303.00 C 347.65 300.61 342.13 298.87 337.19 295.85 C 336.06 293.03 335.06 290.16 334.28 287.22 C 333.51 286.83 332.73 286.44 331.96 286.05 C 323.96 289.35 315.28 286.70 307.04 285.88 C 306.45 287.08 305.86 288.27 305.27 289.48 C 303.21 288.35 301.73 286.55 300.30 284.74 C 298.77 282.67 296.16 282.03 293.88 281.17 C 293.05 279.13 292.33 277.05 291.72 274.95 C 289.20 274.32 286.60 274.19 284.03 274.41 C 282.86 272.78 282.00 270.54 279.86 270.01 C 276.59 269.06 273.12 269.78 269.81 269.06 C 269.84 248.68 269.79 228.29 269.84 207.91 C 290.54 207.98 311.24 207.90 331.94 207.95 C 335.62 207.91 339.32 208.28 342.99 207.83 C 345.06 206.95 346.53 205.12 348.21 203.69 C 352.77 203.80 357.43 203.90 361.79 205.41 C 363.41 206.86 363.99 209.11 364.96 211.00 C 366.01 210.08 367.06 209.15 368.11 208.23 C 369.34 208.07 370.58 207.92 371.82 207.76 C 372.33 206.90 372.84 206.04 373.36 205.18 C 373.09 204.68 372.54 203.68 372.27 203.18 Z" />
<path fill="#cdc3cc" d=" M 269.82 271.11 C 272.67 271.73 275.59 271.16 278.46 271.50 C 281.65 272.16 282.19 275.99 284.04 278.21 C 284.76 277.46 285.48 276.71 286.20 275.96 C 287.52 276.11 288.85 276.27 290.17 276.43 C 290.88 278.44 291.31 280.66 292.70 282.35 C 294.23 283.63 296.33 283.93 298.02 284.95 C 299.58 286.38 300.49 288.38 302.12 289.73 C 303.64 290.94 305.64 290.86 307.47 291.07 C 307.59 290.30 307.85 288.76 307.97 287.99 C 315.99 288.83 324.43 291.17 332.24 287.93 C 333.44 290.84 334.52 293.81 335.27 296.88 C 340.32 299.68 345.55 302.14 351.00 304.09 C 345.72 308.08 338.53 306.33 332.38 307.48 C 328.40 311.97 324.50 317.93 317.67 317.54 C 319.28 318.64 320.50 320.19 320.18 322.29 C 319.28 321.36 318.40 320.43 317.52 319.49 C 314.78 318.24 312.20 316.70 309.63 315.14 C 310.03 313.65 311.47 312.02 310.07 310.59 C 309.88 311.30 309.49 312.72 309.29 313.43 C 307.56 313.83 305.81 314.13 304.06 314.30 C 305.28 313.11 306.54 311.97 307.83 310.85 C 307.19 309.61 306.55 308.37 305.91 307.14 C 304.20 308.33 302.50 309.51 300.79 310.69 C 301.71 310.72 303.55 310.78 304.47 310.81 C 300.02 312.25 296.60 315.39 293.35 318.60 C 289.71 317.71 286.88 314.92 283.36 313.71 C 281.02 313.13 278.62 312.82 276.31 312.13 C 275.56 312.70 274.82 313.27 274.07 313.84 C 272.69 312.41 271.30 310.98 269.89 309.57 C 269.72 296.75 269.87 283.93 269.82 271.11 Z" />
<path fill="#cdc3cc" d=" M 227.48 282.98 C 230.54 282.20 233.62 281.48 236.75 281.05 C 238.69 282.14 240.80 282.87 242.91 283.59 C 241.57 284.00 240.22 284.40 238.88 284.78 C 238.40 285.05 237.45 285.57 236.97 285.83 C 234.36 285.83 231.75 286.03 229.15 285.94 C 228.54 284.98 227.98 284.00 227.48 282.98 Z" />
<path fill="#cdc3cc" d=" M 296.37 334.94 C 296.70 332.60 294.35 327.97 298.14 327.82 C 298.53 330.41 299.07 333.38 296.37 334.94 Z" />
<path fill="#cdc3cc" d=" M 332.95 329.87 C 335.63 329.47 336.65 333.25 337.83 335.13 C 337.24 335.36 336.06 335.84 335.47 336.07 C 334.65 334.07 331.93 332.13 332.95 329.87 Z" />
<path fill="#cdc3cc" d=" M 335.67 337.11 C 336.42 336.24 338.35 336.23 338.69 337.51 C 338.58 339.19 334.87 338.84 335.67 337.11 Z" />
<path fill="#cdc3cc" d=" M 303.82 341.15 C 308.84 342.59 314.04 343.72 318.18 347.15 C 323.78 345.20 329.85 344.76 335.07 341.78 C 335.84 342.70 336.60 343.63 337.37 344.56 C 337.19 349.65 336.99 354.76 337.55 359.84 C 337.05 359.34 336.03 358.35 335.52 357.86 C 333.30 362.87 334.23 368.46 332.81 373.58 C 331.68 371.62 331.14 369.41 331.07 367.16 C 327.78 370.17 325.77 374.20 323.98 378.21 C 321.55 376.84 318.84 376.02 316.05 376.59 C 315.61 375.01 315.00 373.46 313.81 372.29 C 311.04 369.41 309.24 365.74 308.29 361.89 C 308.70 361.50 309.52 360.72 309.93 360.33 C 306.81 354.40 301.68 348.29 303.82 341.15 Z" />
</svg>
